<?xml version="1.0" encoding="UTF-8" standalone="no"?>
<!-- Created with Inkscape (http://www.inkscape.org/) -->

<svg
   xmlns:dc="http://purl.org/dc/elements/1.1/"
   xmlns:cc="http://creativecommons.org/ns#"
   xmlns:rdf="http://www.w3.org/1999/02/22-rdf-syntax-ns#"
   xmlns:svg="http://www.w3.org/2000/svg"
   xmlns="http://www.w3.org/2000/svg"
   xmlns:sodipodi="http://sodipodi.sourceforge.net/DTD/sodipodi-0.dtd"
   xmlns:inkscape="http://www.inkscape.org/namespaces/inkscape"
   width="170"
   height="170"
   id="svg4547"
   version="1.1"
   inkscape:version="0.48.2 r9819"
   sodipodi:docname="New document 4">
  <defs
     id="defs4549" />
  <sodipodi:namedview
     id="base"
     pagecolor="#ffffff"
     bordercolor="#666666"
     borderopacity="1.0"
     inkscape:pageopacity="0.0"
     inkscape:pageshadow="2"
     inkscape:zoom="0.35"
     inkscape:cx="-619.37392"
     inkscape:cy="253.21747"
     inkscape:document-units="px"
     inkscape:current-layer="layer1"
     showgrid="false"
     fit-margin-top="0"
     fit-margin-left="0"
     fit-margin-right="0"
     fit-margin-bottom="0"
     inkscape:window-width="1280"
     inkscape:window-height="927"
     inkscape:window-x="0"
     inkscape:window-y="0"
     inkscape:window-maximized="1" />
  <metadata
     id="metadata4552">
    <rdf:RDF>
      <cc:Work
         rdf:about="">
        <dc:format>image/svg+xml</dc:format>
        <dc:type
           rdf:resource="http://purl.org/dc/dcmitype/StillImage" />
        <dc:title></dc:title>
      </cc:Work>
    </rdf:RDF>
  </metadata>
  <g
     inkscape:label="Layer 1"
     inkscape:groupmode="layer"
     id="layer1"
     transform="translate(-635.8025,-615.57965)">
    <path
       style="fill:#ed6a1c;fill-opacity:1"
       d="m 713.86239,779.87938 c -6.509,-2.66559 -14.70733,-6.89786 -21.21319,-10.951 -14.92714,-9.29957 -23.43202,-19.56244 -26.5672,-32.05872 -1.38895,-5.53612 -1.14821,-15.84218 0.50293,-21.52987 3.04074,-10.47447 8.28815,-18.78565 21.77257,-34.48477 21.42681,-24.94598 28.12939,-41.69612 23.00852,-57.4997 -0.75103,-2.31779 -1.23272,-4.34695 -1.07042,-4.50925 0.40296,-0.40296 3.57266,1.3892 9.88024,5.5863 32.7276,21.77714 42.44953,51.98772 27.57828,85.69855 -2.8491,6.45846 -6.21685,12.06681 -14.0445,23.38842 -9.94609,14.38563 -12.76262,20.85847 -13.34688,30.67327 -0.26018,4.37067 0.13094,8.24812 1.69401,16.79379 0.21882,1.19636 0.0885,1.38799 -0.9397,1.38202 -0.65656,-0.004 -3.92116,-1.12389 -7.25466,-2.48904 l 0,0 z"
       id="path3874-6-1-1-0"
       inkscape:connector-curvature="0" />
    <path
       style="fill:#fdc401;fill-opacity:1"
       d="m 730.27456,781.70062 c -0.84489,-1.57869 -1.59537,-9.45502 -1.25076,-13.12674 0.78471,-8.36071 4.29222,-15.80611 13.28195,-28.19365 5.39357,-7.43215 8.19559,-12.04764 11.16575,-18.39228 4.91357,-10.49601 8.32291,-22.67325 8.98847,-32.10441 l 0.29771,-4.2186 1.5229,2.43733 c 4.34015,6.94624 9.50581,19.7943 11.24043,27.95724 1.09429,5.14967 1.22451,15.47561 0.25141,19.93695 -1.63659,7.50319 -6.00882,15.8223 -11.1108,21.14061 -3.74652,3.90539 -7.07916,6.54701 -21.5059,17.04668 -12.30589,8.95611 -12.1573,8.8694 -12.88116,7.51687 z"
       id="path3876-7-6-8-7"
       inkscape:connector-curvature="0" />
  </g>
</svg>
