<?xml version="1.0" encoding="UTF-8" standalone="no"?>
<!-- Created with Inkscape (http://www.inkscape.org/) -->

<svg
   xmlns:dc="http://purl.org/dc/elements/1.1/"
   xmlns:cc="http://creativecommons.org/ns#"
   xmlns:rdf="http://www.w3.org/1999/02/22-rdf-syntax-ns#"
   xmlns:svg="http://www.w3.org/2000/svg"
   xmlns="http://www.w3.org/2000/svg"
   xmlns:sodipodi="http://sodipodi.sourceforge.net/DTD/sodipodi-0.dtd"
   xmlns:inkscape="http://www.inkscape.org/namespaces/inkscape"
   width="708.7455444"
   height="164.094574"
   id="svg3021"
   version="1.1"
   inkscape:version="0.92.4 (5da689c313, 2019-01-14)"
   sodipodi:docname="prometeo_logo_flame_letters_white.svg">
  <defs
     id="defs3023" />
  <sodipodi:namedview
     id="base"
     pagecolor="#ffffff"
     bordercolor="#666666"
     borderopacity="1.0"
     inkscape:pageopacity="0.0"
     inkscape:pageshadow="2"
     inkscape:zoom="2.8"
     inkscape:cx="342.64329"
     inkscape:cy="10.114754"
     inkscape:document-units="px"
     inkscape:current-layer="layer1"
     showgrid="false"
     fit-margin-top="0"
     fit-margin-left="0"
     fit-margin-right="0"
     fit-margin-bottom="0"
     inkscape:window-width="3240"
     inkscape:window-height="2035"
     inkscape:window-x="-13"
     inkscape:window-y="-13"
     inkscape:window-maximized="1" />
  <metadata
     id="metadata3026">
    <rdf:RDF>
      <cc:Work
         rdf:about="">
        <dc:format>image/svg+xml</dc:format>
        <dc:type
           rdf:resource="http://purl.org/dc/dcmitype/StillImage" />
        <dc:title />
      </cc:Work>
    </rdf:RDF>
  </metadata>
  <g
     inkscape:label="Layer 1"
     inkscape:groupmode="layer"
     id="layer1"
     transform="translate(52.15802667,-367.4577524)">
    <path
       style="fill:#ffffff;fill-opacity:1"
       d="m -3.4720576,528.54637 c -6.509,-2.66559 -14.7073304,-6.89786 -21.2131954,-10.951 -14.92714,-9.29957 -23.43202,-19.56244 -26.5672,-32.05872 -1.38895,-5.53612 -1.14821,-15.84218 0.50293,-21.52987 3.04074,-10.47447 8.28815,-18.78565 21.77257,-34.48477 21.4268154,-24.94598 28.12939537,-41.69612 23.0085254,-57.49969 -0.75103,-2.31779 -1.23272,-4.34695 -1.07042,-4.50925 0.40296,-0.40296 3.57266,1.3892 9.88024,5.5863 32.7275996,21.77713 42.4495296,51.98771 27.5782796,85.69854 -2.8491,6.45846 -6.21685,12.06681 -14.0445,23.38842 -9.9460896,14.38563 -12.7626196,20.85847 -13.3468796,30.67327 -0.26018,4.37067 0.13094,8.24812 1.69401,16.79379 0.21882,1.19636 0.0885,1.38799 -0.9397,1.38202 -0.65656,-0.004 -3.92116003,-1.12389 -7.25466,-2.48904 l 0,0 z"
       id="path3874-6-1-1-0"
       inkscape:connector-curvature="0"
       inkscape:export-xdpi="40.639999"
       inkscape:export-ydpi="40.639999" />
    <path
       style="fill:#ffffff;fill-opacity:1"
       d="m 12.940112,530.36761 c -0.84489,-1.57869 -1.59537,-9.45502 -1.25076,-13.12674 0.78471,-8.36071 4.29222,-15.80611 13.28195,-28.19365 5.39357,-7.43215 8.19559,-12.04764 11.16575,-18.39228 4.91357,-10.49601 8.32291,-22.67325 8.98847,-32.10441 l 0.29771,-4.2186 1.5229,2.43733 c 4.340151,6.94624 9.505811,19.7943 11.240431,27.95724 1.09429,5.14967 1.22451,15.47561 0.25141,19.93695 -1.63659,7.50319 -6.00882,15.8223 -11.110801,21.14061 -3.74652,3.90539 -7.07916,6.54701 -21.5059,17.04668 -12.30589,8.95611 -12.1573,8.8694 -12.88116,7.51687 z"
       id="path3876-7-6-8-7"
       inkscape:connector-curvature="0"
       inkscape:export-xdpi="40.639999"
       inkscape:export-ydpi="40.639999" />
    <g
       transform="translate(-127.85178,-293.57071)"
       style="font-style:normal;font-variant:normal;font-weight:normal;font-stretch:normal;font-size:40px;line-height:125%;font-family:'Carnivalee Freakshow';-inkscape-font-specification:'Carnivalee Freakshow';letter-spacing:0px;word-spacing:0px;fill:#ed6a1c;fill-opacity:1;stroke:none"
       id="flowRoot3944-75-77">
      <path
         d="m 301.44664,770.39303 c -7e-5,9.44669 -2.34007,17.20335 -7.02,23.27 -5.11339,6.58667 -12.26339,9.88 -21.45,9.88 -9.27337,0 -16.29336,-3.29333 -21.06,-9.88 l 0,27.17 c -2e-5,1.90665 -0.26002,3.07665 -0.78,3.51 -0.43335,0.51998 -1.64669,0.77998 -3.64,0.78 l -5.33,0 c -1.99334,-2e-5 -3.25001,-0.26002 -3.77,-0.78 -0.43334,-0.43335 -0.65001,-1.60335 -0.65,-3.51 l 0,-77.48 c -1e-5,-1.9066 0.21666,-3.0766 0.65,-3.51 0.51999,-0.51994 1.77666,-0.77994 3.77,-0.78 l 4.55,0 c 1.99331,6e-5 3.20665,0.21673 3.64,0.65 0.43331,0.4334 0.64998,1.64673 0.65,3.64 l 0,4.03 c 5.02664,-6.67327 12.0033,-10.00993 20.93,-10.01 9.35995,7e-5 16.72661,3.20673 22.1,9.62 4.93993,6.06672 7.40993,13.86671 7.41,23.4 m -14.3,0.39 c -6e-5,-6.32663 -1.38672,-11.48329 -4.16,-15.47 -3.20672,-4.59328 -7.80005,-6.88994 -13.78,-6.89 -5.98003,6e-5 -10.57336,2.25339 -13.78,6.76 -2.68669,3.81338 -4.03002,8.88337 -4.03,15.21 -2e-5,6.41336 1.38664,11.57002 4.16,15.47 3.20664,4.42001 7.88663,6.63001 14.04,6.63 5.80662,10e-6 10.31328,-2.20999 13.52,-6.63 2.68661,-3.89998 4.02994,-8.92664 4.03,-15.08"
         style="font-size:130px;font-family:SchulVokalDotless;-inkscape-font-specification:SchulVokalDotless;text-align:center;text-anchor:middle;fill:#ffffff"
         id="path4487"
         inkscape:connector-curvature="0"
         inkscape:export-xdpi="40.639999"
         inkscape:export-ydpi="40.639999" />
      <path
         d="m 351.99633,746.60303 c -5e-5,2.94672 -0.99671,4.37672 -2.99,4.29 l -3.64,-0.13 c -2.77337,-0.0866 -5.5467,0.82339 -8.32,2.73 -2.6867,1.82005 -4.68003,4.03005 -5.98,6.63 -1.64669,3.38004 -2.47002,8.88337 -2.47,16.51 l 0,20.93 c -2e-5,1.90667 -0.26002,3.12 -0.78,3.64 -0.43336,0.43334 -1.64669,0.65 -3.64,0.65 l -5.33,0 c -1.99335,0 -3.25001,-0.21666 -3.77,-0.65 -0.43334,-0.52 -0.65001,-1.73333 -0.65,-3.64 l 0,-54.21 c -1e-5,-1.9066 0.21666,-3.0766 0.65,-3.51 0.51999,-0.51994 1.77665,-0.77994 3.77,-0.78 l 4.55,0 c 1.99331,6e-5 3.20664,0.21673 3.64,0.65 0.43331,0.4334 0.64998,1.64673 0.65,3.64 l 0,8.19 c 4.93997,-9.1866 11.7433,-13.77993 20.41,-13.78 1.64662,7e-5 2.68662,0.3034 3.12,0.91 0.51995,0.52006 0.77995,1.64673 0.78,3.38 l 0,4.55"
         style="font-size:130px;font-family:SchulVokalDotless;-inkscape-font-specification:SchulVokalDotless;text-align:center;text-anchor:middle;fill:#ffffff"
         id="path4489"
         inkscape:connector-curvature="0"
         inkscape:export-xdpi="40.639999"
         inkscape:export-ydpi="40.639999" />
      <path
         d="m 420.84555,770.65303 c -7e-5,10.05336 -2.86007,18.07002 -8.58,24.05 -5.72006,5.89334 -13.56338,8.84 -23.53,8.84 -9.88003,0 -17.76669,-2.99 -23.66,-8.97 -5.89334,-5.97998 -8.84001,-13.90998 -8.84,-23.79 -10e-6,-10.05329 2.85999,-18.11328 8.58,-24.18 5.80664,-6.15327 13.6933,-9.22993 23.66,-9.23 10.13995,7e-5 18.06994,2.99006 23.79,8.97 5.71993,5.98005 8.57993,14.08338 8.58,24.31 m -14.3,0 c -6e-5,-6.41329 -1.34339,-11.56996 -4.03,-15.47 -3.20672,-4.50661 -7.84338,-6.75994 -13.91,-6.76 -6.0667,6e-5 -10.70336,2.25339 -13.91,6.76 -2.77336,3.90004 -4.16002,9.01337 -4.16,15.34 -2e-5,6.41336 1.38664,11.52669 4.16,15.34 3.20664,4.42001 7.88663,6.63001 14.04,6.63 5.97995,10e-6 10.52995,-2.20999 13.65,-6.63 2.77328,-3.89998 4.15994,-8.96997 4.16,-15.21"
         style="font-size:130px;font-family:SchulVokalDotless;-inkscape-font-specification:SchulVokalDotless;text-align:center;text-anchor:middle;fill:#ffffff"
         id="path4491"
         inkscape:connector-curvature="0"
         inkscape:export-xdpi="40.639999"
         inkscape:export-ydpi="40.639999" />
      <path
         d="m 526.58836,797.56303 c -10e-5,1.90667 -0.2601,3.12 -0.78,3.64 -0.43343,0.43334 -1.60343,0.65 -3.51,0.65 l -5.46,0 c -1.99342,0 -3.25009,-0.21666 -3.77,-0.65 -0.43342,-0.52 -0.65009,-1.73333 -0.65,-3.64 l 0,-34.19 c -9e-5,-4.85329 -0.69342,-8.31995 -2.08,-10.4 -1.64675,-2.68661 -4.72341,-4.02994 -9.23,-4.03 -6.32674,6e-5 -10.53007,2.68672 -12.61,8.06 -0.9534,1.90671 -1.43006,5.63337 -1.43,11.18 l 0,29.38 c -6e-5,1.90667 -0.26006,3.12 -0.78,3.64 -0.43339,0.43334 -1.60339,0.65 -3.51,0.65 l -5.46,0 c -1.99338,0 -3.25005,-0.21666 -3.77,-0.65 -0.43338,-0.52 -0.65005,-1.73333 -0.65,-3.64 l 0,-34.97 c -5e-5,-4.50662 -0.65005,-7.75662 -1.95,-9.75 -1.56004,-2.59995 -4.42004,-3.89994 -8.58,-3.9 -6.3267,6e-5 -10.70336,2.73005 -13.13,8.19 -1.04002,2.34004 -1.56002,6.02337 -1.56,11.05 l 0,29.38 c -2e-5,1.90667 -0.26002,3.12 -0.78,3.64 -0.43336,0.43334 -1.64669,0.65 -3.64,0.65 l -5.33,0 c -1.99334,0 -3.25001,-0.21666 -3.77,-0.65 -0.43334,-0.52 -0.65001,-1.73333 -0.65,-3.64 l 0,-54.21 c -10e-6,-1.9066 0.21666,-3.0766 0.65,-3.51 0.51999,-0.51994 1.77666,-0.77994 3.77,-0.78 l 4.55,0 c 1.99331,6e-5 3.20665,0.21673 3.64,0.65 0.43331,0.4334 0.64998,1.64673 0.65,3.64 l 0,4.55 c 5.45997,-7.01994 12.17663,-10.52993 20.15,-10.53 8.49328,7e-5 14.51661,3.5534 18.07,10.66 5.37327,-7.1066 12.26326,-10.65993 20.67,-10.66 6.75991,7e-5 11.91657,1.90673 15.47,5.72 3.6399,3.81339 5.4599,9.14339 5.46,15.99 l 0,38.48"
         style="font-size:130px;font-family:SchulVokalDotless;-inkscape-font-specification:SchulVokalDotless;text-align:center;text-anchor:middle;fill:#ffffff"
         id="path4493"
         inkscape:connector-curvature="0"
         inkscape:export-xdpi="40.639999"
         inkscape:export-ydpi="40.639999" />
      <path
         d="m 600.40805,770.26303 c -7e-5,1.56003 -0.34674,2.5567 -1.04,2.99 -0.60673,0.3467 -1.77673,0.52003 -3.51,0.52 l -42.77,0 c 0.51998,13.00002 6.32664,19.50001 17.42,19.5 3.89996,1e-5 6.93329,-0.69332 9.1,-2.08 2.25328,-1.47332 4.20328,-3.94332 5.85,-7.41 0.51995,-1.03998 1.86328,-1.55998 4.03,-1.56 l 4.81,0 c 2.9466,2e-5 4.41993,0.86669 4.42,2.6 -7e-5,1.30002 -1.25673,3.72668 -3.77,7.28 -5.46006,7.62667 -13.60672,11.44 -24.44,11.44 -9.62003,0 -17.29002,-2.99 -23.01,-8.97 -5.63334,-5.97998 -8.45001,-13.77998 -8.45,-23.4 -10e-6,-9.61996 2.81666,-17.63662 8.45,-24.05 5.71998,-6.49994 13.3033,-9.74993 22.75,-9.75 9.27329,7e-5 16.68328,3.20673 22.23,9.62 5.2866,6.06672 7.92993,13.82338 7.93,23.27 m -14.04,-5.72 c -0.43339,-4.85329 -1.99339,-8.83995 -4.68,-11.96 -2.94671,-3.29328 -6.80338,-4.93994 -11.57,-4.94 -9.7067,6e-5 -15.29669,5.63338 -16.77,16.9 l 33.02,0"
         style="font-size:130px;font-family:SchulVokalDotless;-inkscape-font-specification:SchulVokalDotless;text-align:center;text-anchor:middle;fill:#ffffff"
         id="path4495"
         inkscape:connector-curvature="0"
         inkscape:export-xdpi="40.639999"
         inkscape:export-ydpi="40.639999" />
      <path
         d="m 643.83617,744.91303 c -4e-5,1.90672 -0.26004,3.12006 -0.78,3.64 -0.43337,0.43339 -1.6467,0.65005 -3.64,0.65 l -8.45,0 0,33.02 c -2e-5,5.37335 -2e-5,8.06001 0,8.06 -2e-5,1.12668 -0.0434,3.07668 -0.13,5.85 -2e-5,1.99334 -2e-5,3.51 0,4.55 -2e-5,0.95334 -2.64336,1.43 -7.93,1.43 -4.07335,0 -6.11001,-0.39 -6.11,-1.17 l 0,-51.74 -6.24,0 c -1.99334,5e-5 -3.25,-0.21661 -3.77,-0.65 -0.52,-0.43328 -0.78,-1.64661 -0.78,-3.64 l 0,-1.56 c 0,-1.99327 0.26,-3.2066 0.78,-3.64 0.52,-0.43327 1.77666,-0.64994 3.77,-0.65 l 6.24,0 0,-14.56 c -10e-6,-1.90659 0.21666,-3.07658 0.65,-3.51 0.51999,-0.51992 1.73332,-0.77992 3.64,-0.78 l 5.46,0 c 1.99331,8e-5 3.20664,0.26008 3.64,0.78 0.51998,0.43342 0.77998,1.60341 0.78,3.51 l 0,14.56 8.45,0 c 1.9933,6e-5 3.20663,0.26006 3.64,0.78 0.51996,0.4334 0.77996,1.6034 0.78,3.51 l 0,1.56"
         style="font-size:130px;font-family:SchulVokalDotless;-inkscape-font-specification:SchulVokalDotless;text-align:center;text-anchor:middle;fill:#ffffff"
         id="path4497"
         inkscape:connector-curvature="0"
         inkscape:export-xdpi="40.639999"
         inkscape:export-ydpi="40.639999" />
      <path
         d="m 711.11117,770.26303 c -6e-5,1.56003 -0.34673,2.5567 -1.04,2.99 -0.60673,0.3467 -1.77673,0.52003 -3.51,0.52 l -42.77,0 c 0.51998,13.00002 6.32664,19.50001 17.42,19.5 3.89996,1e-5 6.93329,-0.69332 9.1,-2.08 2.25329,-1.47332 4.20329,-3.94332 5.85,-7.41 0.51995,-1.03998 1.86328,-1.55998 4.03,-1.56 l 4.81,0 c 2.94661,2e-5 4.41994,0.86669 4.42,2.6 -6e-5,1.30002 -1.25673,3.72668 -3.77,7.28 -5.46005,7.62667 -13.60671,11.44 -24.44,11.44 -9.62002,0 -17.29002,-2.99 -23.01,-8.97 -5.63334,-5.97998 -8.45,-13.77998 -8.45,-23.4 0,-9.61996 2.81666,-17.63662 8.45,-24.05 5.71998,-6.49994 13.30331,-9.74993 22.75,-9.75 9.27329,7e-5 16.68328,3.20673 22.23,9.62 5.28661,6.06672 7.92994,13.82338 7.93,23.27 m -14.04,-5.72 c -0.43338,-4.85329 -1.99338,-8.83995 -4.68,-11.96 -2.94671,-3.29328 -6.80337,-4.93994 -11.57,-4.94 -9.70669,6e-5 -15.29669,5.63338 -16.77,16.9 l 33.02,0"
         style="font-size:130px;font-family:SchulVokalDotless;-inkscape-font-specification:SchulVokalDotless;text-align:center;text-anchor:middle;fill:#ffffff"
         id="path4499"
         inkscape:connector-curvature="0"
         inkscape:export-xdpi="40.639999"
         inkscape:export-ydpi="40.639999" />
      <path
         d="m 784.4393,770.65303 c -7e-5,10.05336 -2.86007,18.07002 -8.58,24.05 -5.72006,5.89334 -13.56338,8.84 -23.53,8.84 -9.88003,0 -17.76669,-2.99 -23.66,-8.97 -5.89334,-5.97998 -8.84001,-13.90998 -8.84,-23.79 -10e-6,-10.05329 2.85999,-18.11328 8.58,-24.18 5.80664,-6.15327 13.6933,-9.22993 23.66,-9.23 10.13995,7e-5 18.06994,2.99006 23.79,8.97 5.71993,5.98005 8.57993,14.08338 8.58,24.31 m -14.3,0 c -6e-5,-6.41329 -1.34339,-11.56996 -4.03,-15.47 -3.20672,-4.50661 -7.84338,-6.75994 -13.91,-6.76 -6.0667,6e-5 -10.70336,2.25339 -13.91,6.76 -2.77336,3.90004 -4.16002,9.01337 -4.16,15.34 -2e-5,6.41336 1.38664,11.52669 4.16,15.34 3.20664,4.42001 7.88663,6.63001 14.04,6.63 5.97995,10e-6 10.52995,-2.20999 13.65,-6.63 2.77328,-3.89998 4.15994,-8.96997 4.16,-15.21"
         style="font-size:130px;font-family:SchulVokalDotless;-inkscape-font-specification:SchulVokalDotless;text-align:center;text-anchor:middle;fill:#ffffff"
         id="path4501"
         inkscape:connector-curvature="0"
         inkscape:export-xdpi="40.639999"
         inkscape:export-ydpi="40.639999" />
    </g>
  </g>
</svg>
